[Header]
FileType HTR
DataType HTRS
FileVersion 1
NumSegments 64
NumFrames 2
DataFrameRate 24
EulerRotationOrder ZYX
CalibrationUnits mm
RotationUnits Degrees
GlobalAxisofGravity Y
BoneLengthAxis Y
ScaleFactor 1.0
[SegmentNames&Hierarchy]
Hips	GLOBAL
Spine	Hips
Spine1	Spine
Spine2	Spine1
Neck	Spine2
Head	Neck
LeftEye	Head
RightEye	Head
LeftShoulder	Spine2
LeftArm	LeftShoulder
LeftForeArm	LeftArm
LeftHand	LeftForeArm
LeftHandThumb1	LeftHand
LeftHandThumb2	LeftHandThumb1
LeftHandThumb3	LeftHandThumb2
LeftHandThumb4	LeftHandThumb3
LeftHandIndex1	LeftHand
LeftHandIndex2	LeftHandIndex1
LeftHandIndex3	LeftHandIndex2
LeftHandIndex4	LeftHandIndex3
LeftHandMiddle1	LeftHand
LeftHandMiddle2	LeftHandMiddle1
LeftHandMiddle3	LeftHandMiddle2
LeftHandMiddle4	LeftHandMiddle3
LeftHandRing1	LeftHand
LeftHandRing2	LeftHandRing1
LeftHandRing3	LeftHandRing2
LeftHandRing4	LeftHandRing3
LeftHandPinky1	LeftHand
LeftHandPinky2	LeftHandPinky1
LeftHandPinky3	LeftHandPinky2
LeftHandPinky4	LeftHandPinky3
RightShoulder	Spine2
RightArm	RightShoulder
RightForeArm	RightArm
RightHand	RightForeArm
RightHandPinky1	RightHand
RightHandPinky2	RightHandPinky1
RightHandPinky3	RightHandPinky2
RightHandPinky4	RightHandPinky3
RightHandRing1	RightHand
RightHandRing2	RightHandRing1
RightHandRing3	RightHandRing2
RightHandRing4	RightHandRing3
RightHandMiddle1	RightHand
RightHandMiddle2	RightHandMiddle1
RightHandMiddle3	RightHandMiddle2
RightHandMiddle4	RightHandMiddle3
RightHandIndex1	RightHand
RightHandIndex2	RightHandIndex1
RightHandIndex3	RightHandIndex2
RightHandIndex4	RightHandIndex3
RightHandThumb1	RightHand
RightHandThumb2	RightHandThumb1
RightHandThumb3	RightHandThumb2
RightHandThumb4	RightHandThumb3
LeftUpLeg	Hips
LeftLeg	LeftUpLeg
LeftFoot	LeftLeg
LeftToeBase	LeftFoot
RightUpLeg	Hips
RightLeg	RightUpLeg
RightFoot	RightLeg
RightToeBase	RightFoot
[BasePosition]
Hips	0	0	0	0	0	0	1
Spine	0	0	0	0	0	0	1
Spine1	0	0	0	0	0	0	1
Spine2	0	0	0	0	0	0	1
Neck	0	0	0	0	0	0	1
Head	0	0	0	0	0	0	1
LeftEye	0	0	0	0	0	0	1
RightEye	0	0	0	0	0	0	1
LeftShoulder	0	0	0	0	0	0	1
LeftArm	0	0	0	0	0	0	1
LeftForeArm	0	0	0	0	0	0	1
LeftHand	0	0	0	0	0	0	1
LeftHandThumb1	0	0	0	0	0	0	1
LeftHandThumb2	0	0	0	0	0	0	1
LeftHandThumb3	0	0	0	0	0	0	1
LeftHandThumb4	0	0	0	0	0	0	1
LeftHandIndex1	0	0	0	0	0	0	1
LeftHandIndex2	0	0	0	0	0	0	1
LeftHandIndex3	0	0	0	0	0	0	1
LeftHandIndex4	0	0	0	0	0	0	1
LeftHandMiddle1	0	0	0	0	0	0	1
LeftHandMiddle2	0	0	0	0	0	0	1
LeftHandMiddle3	0	0	0	0	0	0	1
LeftHandMiddle4	0	0	0	0	0	0	1
LeftHandRing1	0	0	0	0	0	0	1
LeftHandRing2	0	0	0	0	0	0	1
LeftHandRing3	0	0	0	0	0	0	1
LeftHandRing4	0	0	0	0	0	0	1
LeftHandPinky1	0	0	0	0	0	0	1
LeftHandPinky2	0	0	0	0	0	0	1
LeftHandPinky3	0	0	0	0	0	0	1
LeftHandPinky4	0	0	0	0	0	0	1
RightShoulder	0	0	0	0	0	0	1
RightArm	0	0	0	0	0	0	1
RightForeArm	0	0	0	0	0	0	1
RightHand	0	0	0	0	0	0	1
RightHandPinky1	0	0	0	0	0	0	1
RightHandPinky2	0	0	0	0	0	0	1
RightHandPinky3	0	0	0	0	0	0	1
RightHandPinky4	0	0	0	0	0	0	1
RightHandRing1	0	0	0	0	0	0	1
RightHandRing2	0	0	0	0	0	0	1
RightHandRing3	0	0	0	0	0	0	1
RightHandRing4	0	0	0	0	0	0	1
RightHandMiddle1	0	0	0	0	0	0	1
RightHandMiddle2	0	0	0	0	0	0	1
RightHandMiddle3	0	0	0	0	0	0	1
RightHandMiddle4	0	0	0	0	0	0	1
RightHandIndex1	0	0	0	0	0	0	1
RightHandIndex2	0	0	0	0	0	0	1
RightHandIndex3	0	0	0	0	0	0	1
RightHandIndex4	0	0	0	0	0	0	1
RightHandThumb1	0	0	0	0	0	0	1
RightHandThumb2	0	0	0	0	0	0	1
RightHandThumb3	0	0	0	0	0	0	1
RightHandThumb4	0	0	0	0	0	0	1
LeftUpLeg	0	0	0	0	0	0	1
LeftLeg	0	0	0	0	0	0	1
LeftFoot	0	0	0	0	0	0	1
LeftToeBase	0	0	0	0	0	0	1
RightUpLeg	0	0	0	0	0	0	1
RightLeg	0	0	0	0	0	0	1
RightFoot	0	0	0	0	0	0	1
RightToeBase	0	0	0	0	0	0	1
[Hips]
1	-14.13133049	1017.231445	5.311754227	25.11663246	-79.81617737	-25.198946	1.0
2	-88.86733246	1025.059326	7.459485054	21.97216225	-80.64161682	-21.99414063	1.0
[Spine]
1	0	101.8159943	1.315000057	3.696000099	5.957100391	1.867644191	1.0
2	0	101.8159943	1.315000057	3.740957737	7.093954563	1.243224144	1.0
[Spine1]
1	0	100.8349991	-10.00800037	1.253304005	14.96756935	-1.278065443	1.0
2	0	100.8349991	-10.00800037	1.349646568	15.35557747	-1.454685807	1.0
[Spine2]
1	0	91	-13.73399925	1.002334356	14.91815186	-1.632223129	1.0
2	0	91	-13.73399925	1.100987315	15.30847359	-1.806857705	1.0
[Neck]
1	0	166.7169952	-25.16200066	3.977980375	5.811682224	0.9358942509	1.0
2	0	166.7169952	-25.16200066	4.595755577	5.415289879	0.9391688108	1.0
[Head]
1	0	96.17900085	16.84999847	-14.33875561	38.13840485	-7.689435482	1.0
2	0	96.17900085	16.84999847	-14.2637291	36.90543365	-7.554161072	1.0
[LeftEye]
1	30.6760006	64.09500122	92.83599854	0	0	0	1.0
2	30.6760006	64.09500122	92.83599854	0	0	0	1.0
[RightEye]
1	-30.6760006	64.09500122	92.83499908	0	0	0	1.0
2	-30.6760006	64.09500122	92.83499908	0	0	0	1.0
[LeftShoulder]
1	45.70400238	109.4599991	-26.28000069	3.989606619	-3.305813313	-7.794037342	1.0
2	45.70400238	109.4599991	-26.28000069	4.116393089	-3.708055019	-8.810427666	1.0
[LeftArm]
1	105.923996	-5.24600029	-22.32099915	28.46171761	-18.26700783	-64.55849457	1.0
2	105.923996	-5.24600029	-22.32099915	20.87303352	-14.72339249	-65.62252045	1.0
[LeftForeArm]
1	278.414978	-0.0009999999311	0	-4.558618457e-06	-23.55898857	-0.0001997205254	1.0
2	278.414978	-0.0009999999311	0	-5.118133231e-06	-16.5739193	-0.0002024678979	1.0
[LeftHand]
1	283.2879944	0	0	10.53007603	-24.13015366	27.81967163	1.0
2	283.2879944	0	0	23.69386292	-25.40662575	20.76317978	1.0
[LeftHandThumb1]
1	24.6609993	-15.75	26.8239994	10.09133911	-0.8444399834	-3.192978382	1.0
2	24.6609993	-15.75	26.8239994	9.683367729	3.075512886	-0.875838697	1.0
[LeftHandThumb2]
1	32.29800034	-18.64699936	18.64699936	0.8590168953	17.52430153	11.70299816	1.0
2	32.29800034	-18.64699936	18.64699936	2.443804502	14.34814262	12.18763638	1.0
[LeftHandThumb3]
1	26.52600098	-15.31499958	15.31499958	2.353831768	10.72630405	1.339477539	1.0
2	26.52600098	-15.31499958	15.31499958	2.743497849	11.83118248	1.050601602	1.0
[LeftHandThumb4]
1	19.54599953	-11.28499985	11.28499985	0	0	0	1.0
2	19.54599953	-11.28499985	11.28499985	0	0	0	1.0
[LeftHandIndex1]
1	91.09299469	-5.170999527	22.60099792	0.3576692343	0.3877895474	0.8913783431	1.0
2	91.09299469	-5.170999527	22.60099792	0.6922779679	0.5920695066	3.572223902	1.0
[LeftHandIndex2]
1	36.76399994	0	0	0.01424443163	0.8188918233	-0.2756924629	1.0
2	36.76399994	0	0	-0.004799329676	0.9435886741	-1.514321327	1.0
[LeftHandIndex3]
1	28.83100128	0	0	-0.04642283544	-0.7718042731	5.573239803	1.0
2	28.83100128	0	0	-0.0304531958	-0.5723255873	3.583485126	1.0
[LeftHandIndex4]
1	23.92700005	0	0	0	0	0	1.0
2	23.92700005	0	0	0	0	0	1.0
[LeftHandMiddle1]
1	95.33399963	0	0	-0.7770526409	5.69076252	-9.713871002	1.0
2	95.33399963	0	0	-0.4097358584	5.848579407	-6.295899391	1.0
[LeftHandMiddle2]
1	36.98199844	0	0	0.02519590966	0.8759238124	-0.529391408	1.0
2	36.98199844	0	0	-0.009803392924	1.061156273	-2.387515306	1.0
[LeftHandMiddle3]
1	29.50900078	0	0	-0.03315620497	-0.4977393448	7.794657707	1.0
2	29.50900078	0	0	-0.01175262127	-0.2788989246	5.585808277	1.0
[LeftHandMiddle4]
1	28.3390007	0	0	0	0	0	1.0
2	28.3390007	0	0	0	0	0	1.0
[LeftHandRing1]
1	91.04499817	-0.4390000105	-18.65100098	-1.524867177	11.8999033	-14.68802738	1.0
2	91.04499817	-0.4390000105	-18.65100098	-1.36310184	12.47442245	-13.05754375	1.0
[LeftHandRing2]
1	31.54000092	0	0	0.004601999652	0.4169363678	-0.7538157105	1.0
2	31.54000092	0	0	0.005843310617	0.6429550052	-3.031769514	1.0
[LeftHandRing3]
1	29.37700081	0	0	-0.06526056677	-0.6827843189	6.861000538	1.0
2	29.37700081	0	0	-0.01032212842	-0.4018761814	3.986395359	1.0
[LeftHandRing4]
1	26.47500038	0	0	0	0	0	1.0
2	26.47500038	0	0	0	0	0	1.0
[LeftHandPinky1]
1	80.77799988	-4.887000084	-38.06099701	-2.044413567	14.9870615	-19.11977005	1.0
2	80.77799988	-4.887000084	-38.06099701	-1.96094954	15.88094711	-18.01690865	1.0
[LeftHandPinky2]
1	36	0	0	-0.0101392949	-0.03208573163	-1.460366249	1.0
2	36	0	0	-0.04588963464	0.2953974009	-4.751882553	1.0
[LeftHandPinky3]
1	21.14200211	0	0	-0.03850955889	-0.4002780616	12.57385731	1.0
2	21.14200211	0	0	-0.002240880392	-0.05131924152	9.07639122	1.0
[LeftHandPinky4]
1	19.75699997	0	0	0	0	0	1.0
2	19.75699997	0	0	0	0	0	1.0
[RightShoulder]
1	-45.70000076	109.4620056	-26.28000069	6.864382267	18.16967392	18.46512222	1.0
2	-45.70000076	109.4620056	-26.28000069	7.012783527	18.93980598	18.59986305	1.0
[RightArm]
1	-105.9280014	-5.248000145	-22.32099915	-9.696006775	-8.143643379	65.79494476	1.0
2	-105.9280014	-5.248000145	-22.32099915	-3.725246429	-1.018595576	62.32168198	1.0
[RightForeArm]
1	-278.414978	0	0	-6.298677135e-07	0.5516526103	-4.385072316e-06	1.0
2	-278.414978	0	0	-6.139647212e-06	2.568440676	-8.142863408e-06	1.0
[RightHand]
1	-283.2879944	0	0.0009999999311	28.50583267	-14.99406242	14.06802368	1.0
2	-283.2879944	0	0.0009999999311	26.60256004	-11.49139118	18.52275276	1.0
[RightHandPinky1]
1	-80.76699829	-4.885000229	-38.06000137	-8.50629425	-16.72399139	53.17786789	1.0
2	-80.76699829	-4.885000229	-38.06000137	-7.941821098	-16.61969185	49.91055298	1.0
[RightHandPinky2]
1	-36	0	0.0009999999311	-1.078684449	-2.866924047	32.76347733	1.0
2	-36	0	0.0009999999311	-1.048546076	-2.824912548	32.24560165	1.0
[RightHandPinky3]
1	-21.14200211	0	0	-0.6787831187	0.2321544737	20.15626144	1.0
2	-21.14200211	0	0	-0.6572238207	0.2788242996	19.64386559	1.0
[RightHandPinky4]
1	-19.75699997	0	0	0	0	0	1.0
2	-19.75699997	0	0	0	0	0	1.0
[RightHandRing1]
1	-91.03599548	-0.4390000105	-18.65100098	-5.986002922	-13.1788044	47.95227051	1.0
2	-91.03599548	-0.4390000105	-18.65100098	-5.505849838	-13.47008133	44.4427948	1.0
[RightHandRing2]
1	-31.54000092	0	0	-0.4191760719	-2.717997789	24.52114868	1.0
2	-31.54000092	0	0	-0.3978952765	-2.665467024	23.94901085	1.0
[RightHandRing3]
1	-29.37700081	0	0	-0.1743721664	-0.06638697535	19.42738914	1.0
2	-29.37700081	0	0	-0.1599633545	-0.006267594639	18.80659485	1.0
[RightHandRing4]
1	-26.47500038	0	0	0	0	0	1.0
2	-26.47500038	0	0	0	0	0	1.0
[RightHandMiddle1]
1	-95.32500458	0	0	-4.440950394	-8.09430027	38.23719406	1.0
2	-95.32500458	0	0	-3.884688854	-7.94178915	34.21456146	1.0
[RightHandMiddle2]
1	-36.98199844	0	0	-0.7340785265	-2.903973818	22.02338982	1.0
2	-36.98199844	0	0	-0.7008289695	-2.84859252	21.38530922	1.0
[RightHandMiddle3]
1	-29.50900078	0	0	-0.3866614699	-2.063600779	19.99994087	1.0
2	-29.50900078	0	0	-0.363594383	-2.002874136	19.34667778	1.0
[RightHandMiddle4]
1	-28.3390007	0	0.0009999999311	0	0	0	1.0
2	-28.3390007	0	0.0009999999311	0	0	0	1.0
[RightHandIndex1]
1	-91.08300018	-5.167999744	22.60099792	-1.747585058	-3.863997936	25.10491562	1.0
2	-91.08300018	-5.167999744	22.60099792	-1.09089911	-3.230811596	19.98966217	1.0
[RightHandIndex2]
1	-36.76399994	0	0	-0.368070364	-2.222423792	14.60635185	1.0
2	-36.76399994	0	0	-0.350941211	-2.180418968	14.16029263	1.0
[RightHandIndex3]
1	-28.83100128	0	0	-0.3970201612	-0.6890513301	19.36326027	1.0
2	-28.83100128	0	0	-0.3820029795	-0.6457541585	18.90737915	1.0
[RightHandIndex4]
1	-23.92700005	0	0	0	0	0	1.0
2	-23.92700005	0	0	0	0	0	1.0
[RightHandThumb1]
1	-24.64799881	-15.72700024	26.82600021	9.571445465	-5.946615696	-3.283787489	1.0
2	-24.64799881	-15.72700024	26.82600021	9.41650486	-5.617342949	-3.111523151	1.0
[RightHandThumb2]
1	-32.29800034	-18.64699936	18.64699936	7.965242386	-26.05895805	-13.87991714	1.0
2	-32.29800034	-18.64699936	18.64699936	4.902870655	-27.17098236	-14.58407307	1.0
[RightHandThumb3]
1	-26.52600098	-15.31399918	15.31399918	5.386394501	-10.1819458	-0.4413177371	1.0
2	-26.52600098	-15.31399918	15.31399918	5.310740948	-11.70205307	-1.035245776	1.0
[RightHandThumb4]
1	-19.54599953	-11.28499985	11.28499985	0	0	0	1.0
2	-19.54599953	-11.28499985	11.28499985	0	0	0	1.0
[LeftUpLeg]
1	82.07800293	-67.51699829	-15.99599934	-13.35139275	2.889399767	2.440484285	1.0
2	82.07800293	-67.51699829	-15.99599934	-20.50238228	-0.6685904264	-0.5887694359	1.0
[LeftLeg]
1	0	-443.7049866	2.845999956	59.43149567	-1.146223545	11.47178364	1.0
2	0	-443.7049866	2.845999956	54.39816284	-0.2827923298	11.19458199	1.0
[LeftFoot]
1	0	-444.2789917	-29.8219986	11.86031151	8.453099251	-0.7883934379	1.0
2	0	-444.2789917	-29.8219986	4.466264248	14.7635479	1.279283643	1.0
[LeftToeBase]
1	0	-87.28699493	107.1060028	-0.5896246433	-1.086807606e-05	-8.080642147e-06	1.0
2	0	-87.28699493	107.1060028	-2.433266401	-0.007772934157	-3.96795845	1.0
[RightUpLeg]
1	-82.07800293	-67.51699829	-15.99599934	-13.97762394	-2.970827579	9.465022087	1.0
2	-82.07800293	-67.51699829	-15.99599934	-6.050724506	-5.602519035	8.6826334	1.0
[RightLeg]
1	0	-443.7049866	2.861999989	19.60165215	-6.678627968	-3.784124374	1.0
2	0	-443.7049866	2.861999989	13.41486454	-3.804851294	-1.84261167	1.0
[RightFoot]
1	0	-444.2770081	-29.83799934	-6.365032673	-0.9299929142	-3.431149483	1.0
2	0	-444.2770081	-29.83799934	-8.034100533	-1.372234583	-4.135905743	1.0
[RightToeBase]
1	0	-87.28699493	107.1060028	-3.078579426	-1.994119702e-05	1.815270025e-06	1.0
2	0	-87.28699493	107.1060028	-3.306836843	-3.65896376e-05	2.197302138e-06	1.0
[EndOfFile]
